<svg width="22.000000" height="22.000000" viewBox="0 0 22 22" fill="none" xmlns="http://www.w3.org/2000/svg" xmlns:xlink="http://www.w3.org/1999/xlink">
	<desc>
			Created with Pixso.
	</desc>
	<defs/>
	<g opacity="0.300000">
		<path d="M11 22C17.07 22 22 17.07 22 11C22 4.92 17.07 0 11 0C4.92 0 0 4.92 0 11C0 16.42 3.92 20.92 9.08 21.83L9.08 21.87C9.64 21.95 10.22 22 10.8 22C10.83 22 10.87 21.99 10.9 21.99C10.93 21.99 10.96 22 11 22ZM10.9 21.99C11.45 21.99 11.99 21.95 12.52 21.87L12.52 14.36L15.09 14.36L15.58 11.25L12.52 11.25L12.52 9.24C12.52 8.39 12.95 7.56 14.32 7.56L15.71 7.56L15.71 4.92C15.71 4.92 14.45 4.71 13.24 4.71C10.72 4.71 9.08 6.2 9.08 8.89L9.08 11.25L6.28 11.25L6.28 14.36L9.08 14.36L9.08 21.83C9.67 21.93 10.28 21.99 10.9 21.99Z" fill="#353A5A" fill-opacity="1.000000" fill-rule="evenodd"/>
	</g>
</svg>
