<svg width="22.000000" height="22.000000" viewBox="0 0 22 22" fill="none" xmlns="http://www.w3.org/2000/svg" xmlns:xlink="http://www.w3.org/1999/xlink">
	<desc>
			Created with Pixso.
	</desc>
	<defs/>
	<path d="M0.63 3.16C0 4.4 0 6.03 0 9.28L0 12.71C0 15.96 0 17.59 0.63 18.83C1.18 19.92 2.07 20.81 3.16 21.36C4.4 22 6.03 22 9.28 22L12.71 22C15.96 22 17.59 22 18.83 21.36C19.92 20.81 20.81 19.92 21.36 18.83C22 17.59 22 15.96 22 12.71L22 9.28C22 6.03 22 4.4 21.36 3.16C20.81 2.07 19.92 1.18 18.83 0.63C17.59 0 15.96 0 12.71 0L9.28 0C6.03 0 4.4 0 3.16 0.63C2.07 1.18 1.18 2.07 0.63 3.16ZM11 14.92C13.16 14.92 14.92 13.16 14.92 11C14.92 8.83 13.16 7.07 11 7.07C8.83 7.07 7.07 8.83 7.07 11C7.07 13.16 8.83 14.92 11 14.92ZM13.35 11C13.35 12.3 12.3 13.35 11 13.35C9.69 13.35 8.64 12.3 8.64 11C8.64 9.69 9.69 8.64 11 8.64C12.3 8.64 13.35 9.69 13.35 11ZM3.65 5.71C3.14 6.72 3.14 8.04 3.14 10.68L3.14 11.31C3.14 13.95 3.14 15.27 3.65 16.28C4.1 17.17 4.82 17.89 5.71 18.34C6.72 18.85 8.04 18.85 10.68 18.85L11.31 18.85C13.95 18.85 15.27 18.85 16.28 18.34C17.17 17.89 17.89 17.17 18.34 16.28C18.85 15.27 18.85 13.95 18.85 11.31L18.85 10.68C18.85 8.04 18.85 6.72 18.34 5.71C17.89 4.82 17.17 4.1 16.28 3.65C15.27 3.14 13.95 3.14 11.31 3.14L10.68 3.14C8.04 3.14 6.72 3.14 5.71 3.65C4.82 4.1 4.1 4.82 3.65 5.71ZM10.68 4.71L11.31 4.71C12.66 4.71 13.57 4.71 14.28 4.77C14.97 4.82 15.32 4.93 15.56 5.05C16.16 5.35 16.64 5.83 16.94 6.43C17.06 6.67 17.17 7.02 17.22 7.71C17.28 8.42 17.28 9.33 17.28 10.68L17.28 11.31C17.28 12.66 17.28 13.57 17.22 14.28C17.17 14.97 17.06 15.32 16.94 15.56C16.64 16.16 16.16 16.64 15.56 16.94C15.32 17.06 14.97 17.17 14.28 17.22C13.57 17.28 12.66 17.28 11.31 17.28L10.68 17.28C9.33 17.28 8.42 17.28 7.71 17.22C7.02 17.17 6.67 17.06 6.43 16.94C5.83 16.64 5.35 16.16 5.05 15.56C4.93 15.32 4.82 14.97 4.77 14.28C4.71 13.57 4.71 12.66 4.71 11.31L4.71 10.68C4.71 9.33 4.71 8.42 4.77 7.71C4.82 7.02 4.93 6.67 5.05 6.43C5.35 5.83 5.83 5.35 6.43 5.05C6.67 4.93 7.02 4.82 7.71 4.77C8.42 4.71 9.33 4.71 10.68 4.71ZM16.5 6.67C16.5 7.32 15.97 7.85 15.32 7.85C14.67 7.85 14.14 7.32 14.14 6.67C14.14 6.02 14.67 5.5 15.32 5.5C15.97 5.5 16.5 6.02 16.5 6.67Z" fill="#FDFDFD" fill-opacity="1.000000" fill-rule="evenodd"/>
</svg>
