<svg width="170.000000" height="22.000000" viewBox="0 0 170 22" fill="none" xmlns="http://www.w3.org/2000/svg" xmlns:xlink="http://www.w3.org/1999/xlink">
	<desc>
			Created with Pixso.
	</desc>
	<defs/>
	<path d="M43.54 12.37L43.54 18.2L53.11 18.2L53.11 21.59L40 21.59L40 0L52.96 0L52.96 3.39L43.54 3.39L43.54 9L52.19 9L52.19 12.37L43.54 12.37ZM88.98 0L92.77 0L92.77 21.59L89.22 21.59L89.22 6.2L82.65 17.06L82.22 17.06L75.64 6.17L75.64 21.59L72.09 21.59L72.09 0L75.92 0L82.43 10.79L88.98 0ZM141.07 6.17L141.07 9.38L137.25 9.38L137.25 16.78C137.25 17.42 137.39 17.88 137.68 18.17C137.97 18.44 138.39 18.59 138.94 18.63C139.52 18.65 140.23 18.64 141.07 18.6L141.07 21.59C138.52 21.9 136.69 21.69 135.58 20.95C134.47 20.18 133.91 18.8 133.91 16.78L133.91 9.38L131.07 9.38L131.07 6.17L133.91 6.17L133.91 2.83L137.25 1.85L137.25 6.17L141.07 6.17ZM111.77 15.3L99.49 15.3C99.74 16.45 100.29 17.35 101.16 17.98C102.04 18.62 103.13 18.94 104.43 18.94C106.18 18.94 107.5 18.3 108.41 17.03L111.16 18.63C109.65 20.87 107.4 22 104.4 22C101.91 22 99.88 21.23 98.32 19.71Q97.44 18.84 96.9 17.79Q96 16.07 96 13.88Q96 11.9 96.77 10.27Q97.32 9.1 98.29 8.11Q99.03 7.33 99.93 6.81Q101.74 5.77 104.15 5.77C106.39 5.77 108.24 6.56 109.71 8.14Q110.6 9.11 111.13 10.25Q111.9 11.9 111.9 13.91Q111.9 14.53 111.77 15.3ZM122.95 5.77C124.74 5.77 126.17 6.34 127.24 7.49C128.33 8.62 128.87 10.17 128.87 12.12L128.87 21.59L125.54 21.59L125.54 12.46C125.54 11.31 125.23 10.42 124.61 9.81C124 9.19 123.15 8.88 122.08 8.88C120.87 8.88 119.91 9.26 119.21 10.02Q118.16 11.13 118.16 13.32L118.16 21.59L114.83 21.59L114.83 6.17L118.16 6.17L118.16 8.14C119.19 6.56 120.79 5.77 122.95 5.77ZM156.52 19.65C154.95 21.21 153.03 22 150.75 22C148.46 22 146.54 21.21 144.98 19.65C143.39 18.07 142.6 16.14 142.6 13.88C142.6 11.62 143.39 9.69 144.98 8.11C146.54 6.55 148.46 5.77 150.75 5.77C153.03 5.77 154.95 6.55 156.52 8.11C158.1 9.69 158.89 11.62 158.89 13.88C158.89 16.14 158.1 18.07 156.52 19.65ZM165.24 6.17L165.24 8.76C166.09 6.84 167.67 5.89 170 5.89L170 9.5C168.74 9.42 167.63 9.72 166.66 10.42Q166.43 10.59 166.23 10.79Q165.24 11.83 165.24 13.82L165.24 21.59L161.91 21.59L161.91 6.17L165.24 6.17ZM99.46 12.58L108.53 12.58C108.31 11.37 107.79 10.43 106.99 9.78C106.21 9.12 105.25 8.79 104.12 8.79C102.88 8.79 101.86 9.13 101.03 9.81C100.21 10.49 99.68 11.41 99.46 12.58ZM145.93 13.88C145.93 15.28 146.39 16.44 147.32 17.37C148.25 18.29 149.39 18.76 150.75 18.76C152.1 18.76 153.25 18.29 154.17 17.37C155.1 16.44 155.56 15.28 155.56 13.88C155.56 12.48 155.1 11.32 154.17 10.39C153.25 9.47 152.1 9 150.75 9C149.39 9 148.25 9.47 147.32 10.39C146.39 11.32 145.93 12.48 145.93 13.88ZM67.78 13.82L56.36 13.82L56.36 10.61L67.78 10.61L67.78 13.82Z" fill="#353A5A" fill-opacity="1.000000" fill-rule="evenodd"/>
	<path d="M0 9.26C0 4.14 4.17 0 9.33 0L28 0L28 1.15C28 6.27 23.82 10.42 18.66 10.42L0 10.42L0 9.26ZM0 18.52C0 15.32 2.61 12.73 5.83 12.73L7 12.73C9.57 12.73 11.66 14.81 11.66 17.36C11.66 19.92 9.57 22 7 22L0 22L0 18.52ZM22.16 12.73C18.94 12.73 16.33 15.32 16.33 18.52L16.33 22L23.33 22C25.91 22 28 19.92 28 17.36C28 14.81 25.91 12.73 23.33 12.73L22.16 12.73Z" fill="#FA9F42" fill-opacity="1.000000" fill-rule="evenodd"/>
</svg>
