<svg width="22.000000" height="22.000000" viewBox="0 0 22 22" fill="none" xmlns="http://www.w3.org/2000/svg" xmlns:xlink="http://www.w3.org/1999/xlink">
	<desc>
			Created with Pixso.
	</desc>
	<defs/>
	<path d="M9.28 0L12.71 0C15.96 0 17.59 0 18.83 0.63C19.92 1.18 20.81 2.07 21.36 3.16C22 4.4 22 6.03 22 9.28L22 12.71C22 15.96 22 17.59 21.36 18.83C20.81 19.92 19.92 20.81 18.83 21.36C17.59 22 15.96 22 12.71 22L9.28 22C6.03 22 4.4 22 3.16 21.36C2.07 20.81 1.18 19.92 0.63 18.83C0 17.59 0 15.96 0 12.71L0 9.28C0 6.03 0 4.4 0.63 3.16C1.18 2.07 2.07 1.18 3.16 0.63C4.4 0 6.03 0 9.28 0ZM16.32 12.13C16.23 12.37 16.27 12.6 16.43 12.83C16.65 13.07 16.89 13.32 17.13 13.57C17.85 14.3 18.58 15.06 18.81 15.81C18.89 16.27 18.51 16.45 18.12 16.45L16.03 16.48C15.9 16.51 15.74 16.5 15.57 16.44C14.97 16.24 14.57 15.76 14.17 15.28C13.92 14.98 13.66 14.67 13.35 14.43C13.19 14.31 13 14.23 12.82 14.32C12.41 14.54 12.4 14.96 12.39 15.38C12.38 15.69 12.37 16.02 12.19 16.26C11.95 16.52 11.49 16.49 11.11 16.46C11 16.45 10.9 16.45 10.82 16.45C6.9 16.59 4.35 10.97 3.18 8.07C3.04 7.68 3.26 7.49 3.65 7.49L5.89 7.47C6.13 7.51 6.36 7.66 6.45 7.9C6.79 8.72 8.01 11.68 8.76 11.68C9.52 11.68 9.33 8.67 9.08 8.1C8.94 7.91 8.71 7.78 8.38 7.73C8.31 7.72 8.32 7.65 8.42 7.52C8.76 7.08 10.87 6.95 11.79 7.17C11.97 7.22 12.15 7.3 12.23 7.49C12.42 7.93 12.37 8.65 12.33 9.39C12.28 10.3 12.22 11.23 12.6 11.62C12.74 11.66 12.82 11.67 12.95 11.56C13.92 10.59 14.58 9.07 15.12 7.83C15.19 7.64 15.3 7.55 15.47 7.51C15.77 7.51 16.09 7.51 16.42 7.51C17.12 7.52 17.86 7.52 18.51 7.51C19.52 7.51 18.06 9.58 17.08 10.97C16.7 11.51 16.38 11.96 16.32 12.13Z" fill="#FDFDFD" fill-opacity="1.000000" fill-rule="evenodd"/>
</svg>
